<svg xmlns="http://www.w3.org/2000/svg" xmlns:xlink="http://www.w3.org/1999/xlink" width="333.347" height="72.941" viewBox="0 0 333.347 72.941">
  <defs>
    <clipPath id="clip-path">
      <rect width="333.347" height="72.941" fill="none"/>
    </clipPath>
  </defs>
  <g id="Component_2_1" data-name="Component 2 – 1" clip-path="url(#clip-path)">
    <g id="Group_34" data-name="Group 34">
      <path id="Path_114" data-name="Path 114" d="M153.426,317.909a7.777,7.777,0,1,0,7.775-7.938,7.858,7.858,0,0,0-7.775,7.938" transform="translate(-137.342 -309.971)" fill="#003a8e"/>
      <path id="Path_115" data-name="Path 115" d="M176.74,317.909a7.777,7.777,0,1,0,7.775-7.938,7.858,7.858,0,0,0-7.775,7.938" transform="translate(-143.661 -309.971)" fill="#15b7ff"/>
      <path id="Path_116" data-name="Path 116" d="M163.019,388.885V344.921a27.846,27.846,0,0,0-25.606-12.832q-3.025,19.847-6.05,39.693a42.4,42.4,0,0,1,31.656,17.1Z" transform="translate(-131.363 -315.944)" fill="#003a8e"/>
      <path id="Path_117" data-name="Path 117" d="M176.754,388.885V344.921a27.848,27.848,0,0,1,25.606-12.832q3.026,19.847,6.051,39.693a42.4,42.4,0,0,0-31.656,17.1Z" transform="translate(-143.665 -315.944)" fill="#15b7ff"/>
    </g>
    <g id="Group_35" data-name="Group 35" transform="translate(75.654 15.863)">
      <path id="Path_118" data-name="Path 118" d="M236.882,372.644a3.241,3.241,0,0,1-1.739-2.935,2.573,2.573,0,0,1,.6-1.767,1.878,1.878,0,0,1,1.467-.679,6.019,6.019,0,0,1,2.555.87,23.674,23.674,0,0,0,3.179,1.25,12.921,12.921,0,0,0,3.67.434,6.966,6.966,0,0,0,3.56-.761,2.355,2.355,0,0,0,1.277-2.119,2.046,2.046,0,0,0-.516-1.468,4.746,4.746,0,0,0-1.848-1.005,39.187,39.187,0,0,0-4.049-1.06q-4.839-.978-6.93-2.772a6.167,6.167,0,0,1-2.092-4.946,7.133,7.133,0,0,1,1.413-4.321,9.153,9.153,0,0,1,3.886-2.99,14.148,14.148,0,0,1,5.626-1.06,16.859,16.859,0,0,1,4.4.571,13.393,13.393,0,0,1,3.8,1.658,3.28,3.28,0,0,1,1.739,2.881,2.79,2.79,0,0,1-.6,1.82,1.828,1.828,0,0,1-1.468.734,2.944,2.944,0,0,1-1.168-.244A15.693,15.693,0,0,1,252.21,354a22.783,22.783,0,0,0-2.717-1.223,8.495,8.495,0,0,0-2.826-.408,5.469,5.469,0,0,0-3.18.816,2.573,2.573,0,0,0-1.169,2.228,2.262,2.262,0,0,0,1.2,2.066,17.084,17.084,0,0,0,4.62,1.413,26.414,26.414,0,0,1,5.707,1.739,6.688,6.688,0,0,1,2.962,2.446,7.1,7.1,0,0,1,.9,3.75,6.971,6.971,0,0,1-3.071,5.924,13.626,13.626,0,0,1-8.181,2.229,17.47,17.47,0,0,1-9.566-2.337" transform="translate(-235.143 -335.954)" fill="#5b5b5b"/>
      <path id="Path_119" data-name="Path 119" d="M287.792,369.455a2.21,2.21,0,0,1-1.06,1.984,5.064,5.064,0,0,1-3.017.571l-1.467-.109q-9.132-.652-9.132-9.783v-11.85H270.4a3.452,3.452,0,0,1-2.255-.652,2.691,2.691,0,0,1,0-3.805,3.451,3.451,0,0,1,2.255-.652h2.718v-5a3.055,3.055,0,0,1,.924-2.337,3.5,3.5,0,0,1,2.5-.87,3.431,3.431,0,0,1,2.447.87,3.057,3.057,0,0,1,.924,2.337v5h4.62a3.453,3.453,0,0,1,2.256.652,2.691,2.691,0,0,1,0,3.805,3.453,3.453,0,0,1-2.256.652h-4.62v12.338q0,4.023,3.7,4.294l1.467.109q2.718.163,2.718,2.446" transform="translate(-243.873 -333.146)" fill="#5b5b5b"/>
      <path id="Path_120" data-name="Path 120" d="M323.134,348.334a3.057,3.057,0,0,1,.924,2.337v21.09a2.946,2.946,0,0,1-.951,2.282,3.526,3.526,0,0,1-2.473.87,3.279,3.279,0,0,1-2.337-.815,2.905,2.905,0,0,1-.87-2.229v-1.358a8.672,8.672,0,0,1-3.37,3.342,9.75,9.75,0,0,1-4.784,1.169q-9.783,0-9.784-10.979V350.671a3.055,3.055,0,0,1,.924-2.337,3.427,3.427,0,0,1,2.446-.87,3.507,3.507,0,0,1,2.5.87,3.057,3.057,0,0,1,.924,2.337V364.1a6.412,6.412,0,0,0,1.141,4.185,4.428,4.428,0,0,0,3.587,1.36,5.854,5.854,0,0,0,4.539-1.876,7.092,7.092,0,0,0,1.712-4.973V350.671a3.055,3.055,0,0,1,.924-2.337,3.427,3.427,0,0,1,2.446-.87,3.507,3.507,0,0,1,2.5.87" transform="translate(-252.582 -335.995)" fill="#5b5b5b"/>
      <path id="Path_121" data-name="Path 121" d="M366.494,332.6a2.909,2.909,0,0,1,.978,2.283v32.5a3.056,3.056,0,0,1-.924,2.337,3.875,3.875,0,0,1-4.892,0,3.055,3.055,0,0,1-.924-2.337v-1.359a8.506,8.506,0,0,1-3.452,3.479,10.419,10.419,0,0,1-5.136,1.25,11.016,11.016,0,0,1-6.115-1.739,11.537,11.537,0,0,1-4.185-4.919,16.99,16.99,0,0,1-1.5-7.311,16.454,16.454,0,0,1,1.5-7.229,10.972,10.972,0,0,1,10.3-6.468,10.646,10.646,0,0,1,5.109,1.2,8.306,8.306,0,0,1,3.425,3.37V334.775a2.882,2.882,0,0,1,.9-2.2,3.39,3.39,0,0,1,2.418-.843,3.63,3.63,0,0,1,2.5.87m-7.528,30.656a10.032,10.032,0,0,0,1.766-6.36,9.917,9.917,0,0,0-1.766-6.332,6.016,6.016,0,0,0-4.973-2.2,6.189,6.189,0,0,0-5.056,2.175,9.592,9.592,0,0,0-1.794,6.25,10.159,10.159,0,0,0,1.794,6.414,6.7,6.7,0,0,0,10.029.054" transform="translate(-263.655 -331.731)" fill="#5b5b5b"/>
      <path id="Path_122" data-name="Path 122" d="M405.245,347.981a2.956,2.956,0,0,1,1.6-.462,3.421,3.421,0,0,1,2.255.843,2.625,2.625,0,0,1,1.006,2.093,2.8,2.8,0,0,1-.326,1.249L394.945,382.8a3.037,3.037,0,0,1-2.881,1.848,3.351,3.351,0,0,1-2.2-.788,2.471,2.471,0,0,1-.951-1.984,3.5,3.5,0,0,1,.326-1.359l3.7-7.772L382.823,351.7a2.75,2.75,0,0,1-.271-1.249,2.652,2.652,0,0,1,1.059-2.121,3.713,3.713,0,0,1,2.42-.869,3.188,3.188,0,0,1,1.685.461,3.094,3.094,0,0,1,1.2,1.44l7.609,16.8,7.555-16.74a3.149,3.149,0,0,1,1.169-1.44" transform="translate(-275.093 -335.995)" fill="#5b5b5b"/>
      <path id="Path_123" data-name="Path 123" d="M463.587,349.9q2.309,2.582,2.31,8.343v13.372a3.063,3.063,0,0,1-.951,2.419,3.6,3.6,0,0,1-2.473.842,3.519,3.519,0,0,1-2.419-.842,3.06,3.06,0,0,1-.951-2.419V358.24a6.727,6.727,0,0,0-1.06-4.267,3.965,3.965,0,0,0-3.234-1.277,5.321,5.321,0,0,0-4.24,1.821,7.34,7.34,0,0,0-1.577,4.973v12.122a3.063,3.063,0,0,1-.951,2.419,3.52,3.52,0,0,1-2.42.842,3.621,3.621,0,0,1-2.446-.842,3.017,3.017,0,0,1-.978-2.419V358.24a6.722,6.722,0,0,0-1.06-4.267,3.965,3.965,0,0,0-3.234-1.277,5.243,5.243,0,0,0-4.213,1.821,7.43,7.43,0,0,0-1.549,4.973v12.122a3.015,3.015,0,0,1-.979,2.419,3.618,3.618,0,0,1-2.445.842,3.516,3.516,0,0,1-2.419-.842,3.058,3.058,0,0,1-.951-2.419V350.576a2.871,2.871,0,0,1,.978-2.337,3.689,3.689,0,0,1,2.446-.816,3.378,3.378,0,0,1,2.31.788,2.846,2.846,0,0,1,.9,2.256v1.3a8.513,8.513,0,0,1,3.342-3.315,9.881,9.881,0,0,1,4.811-1.142q5.978,0,7.99,5a8.978,8.978,0,0,1,3.533-3.642,10.308,10.308,0,0,1,5.272-1.359,8.473,8.473,0,0,1,6.659,2.582" transform="translate(-286.691 -335.954)" fill="#5b5b5b"/>
      <path id="Path_124" data-name="Path 124" d="M509.293,350.06q2.69,2.746,2.691,8.343v13.262a3.068,3.068,0,0,1-.87,2.31,3.29,3.29,0,0,1-2.392.843,3.177,3.177,0,0,1-2.31-.87,3.034,3.034,0,0,1-.9-2.283v-1.195a7.089,7.089,0,0,1-2.909,3.315,8.724,8.724,0,0,1-4.592,1.2,10.675,10.675,0,0,1-4.838-1.087,8.6,8.6,0,0,1-3.424-2.99,7.547,7.547,0,0,1-1.25-4.239,6.709,6.709,0,0,1,1.5-4.62,8.982,8.982,0,0,1,4.864-2.446,44.3,44.3,0,0,1,9.295-.761h1.36v-1.25a5.565,5.565,0,0,0-1.142-3.886,4.855,4.855,0,0,0-3.7-1.223,11.748,11.748,0,0,0-3.208.462q-1.63.461-3.859,1.332a5.439,5.439,0,0,1-2.065.706,2.044,2.044,0,0,1-1.6-.706,2.684,2.684,0,0,1-.625-1.848,2.782,2.782,0,0,1,.462-1.6,4.4,4.4,0,0,1,1.549-1.278,17.784,17.784,0,0,1,4.539-1.63,23.4,23.4,0,0,1,5.19-.6q5.545,0,8.235,2.745m-5.49,18.209a6.582,6.582,0,0,0,1.712-4.7v-1.142h-.978a37.415,37.415,0,0,0-5.653.327,5.479,5.479,0,0,0-2.88,1.141,2.906,2.906,0,0,0-.87,2.229,3.689,3.689,0,0,0,1.223,2.854,4.313,4.313,0,0,0,3.017,1.114,5.8,5.8,0,0,0,4.429-1.821" transform="translate(-303.807 -335.954)" fill="#5b5b5b"/>
      <path id="Path_125" data-name="Path 125" d="M544.729,369.455a2.21,2.21,0,0,1-1.06,1.984,5.063,5.063,0,0,1-3.017.571l-1.467-.109q-9.132-.652-9.132-9.783v-11.85h-2.718a3.452,3.452,0,0,1-2.255-.652,2.691,2.691,0,0,1,0-3.805,3.452,3.452,0,0,1,2.255-.652h2.718v-5a3.055,3.055,0,0,1,.924-2.337,3.5,3.5,0,0,1,2.5-.87,3.431,3.431,0,0,1,2.446.87,3.057,3.057,0,0,1,.924,2.337v5h4.62a3.453,3.453,0,0,1,2.255.652,2.691,2.691,0,0,1,0,3.805,3.453,3.453,0,0,1-2.255.652h-4.62v12.338q0,4.023,3.7,4.294l1.467.109q2.718.163,2.718,2.446" transform="translate(-313.506 -333.146)" fill="#5b5b5b"/>
      <path id="Path_126" data-name="Path 126" d="M578.634,367.969a2.943,2.943,0,0,1,.571,1.9,3.3,3.3,0,0,1-2.011,2.826,18.162,18.162,0,0,1-4.185,1.658,17.277,17.277,0,0,1-4.458.625q-6.413,0-10.164-3.7t-3.751-10.11a15.516,15.516,0,0,1,1.632-7.229,11.863,11.863,0,0,1,4.593-4.892,13.008,13.008,0,0,1,6.713-1.739,12.045,12.045,0,0,1,6.251,1.576,10.7,10.7,0,0,1,4.13,4.457,14.791,14.791,0,0,1,1.467,6.794q0,2.338-2.066,2.337H561.322a8.553,8.553,0,0,0,2.12,5.518,7.135,7.135,0,0,0,5.218,1.766,9.89,9.89,0,0,0,3.071-.435,29.982,29.982,0,0,0,3.017-1.2,6.005,6.005,0,0,1,2.392-.869,1.832,1.832,0,0,1,1.494.706m-15.328-14.132a8.208,8.208,0,0,0-1.984,5h12.284a7.759,7.759,0,0,0-1.63-5.028,5.38,5.38,0,0,0-4.24-1.712,5.836,5.836,0,0,0-4.43,1.739" transform="translate(-321.73 -335.954)" fill="#5b5b5b"/>
    </g>
  </g>
</svg>
